<svg xmlns="http://www.w3.org/2000/svg" viewBox="0 0 240 290">
<defs><linearGradient id="bg" x1="0" y1="0" x2="1" y2="1"><stop stop-color="#e9eef0"/><stop offset="1" stop-color="#d5e4e8"/></linearGradient><filter id="shadow"><feDropShadow dx="0" dy="6" stdDeviation="8" flood-opacity=".16"/></filter></defs>
<rect width="240" height="290" rx="28" fill="url(#bg)"/><circle cx="190" cy="48" r="48" fill="#fff" opacity=".22"/><path d="M26 252 Q42 165 120 160 Q198 165 214 252 V290 H26Z" fill="#7a604e" filter="url(#shadow)"/><path d="M82 166 L120 207 L158 166 L146 159 L120 177 L94 159Z" fill="#f8fbfc"/><path d="M114 190h12l8 68h-28z" fill="#9fb5bd" opacity=".8"/>
<ellipse cx="120" cy="102" rx="56" ry="68" fill="#d6a27a"/><path d="M55 84 Q61 35 105 29 Q145 26 167 72 Q149 58 130 57 Q112 45 94 57 Q70 56 55 84 Z" fill="#3b2e29"/><ellipse cx="67" cy="108" rx="7" ry="13" fill="#d6a27a"/><ellipse cx="173" cy="108" rx="7" ry="13" fill="#d6a27a"/>
<path d="M86 80 q15-7 28 0" stroke="#694c3d" stroke-width="4" fill="none" stroke-linecap="round" opacity=".7"/><path d="M126 80 q15-7 28 0" stroke="#694c3d" stroke-width="4" fill="none" stroke-linecap="round" opacity=".7"/>
<ellipse cx="99" cy="94" rx="4" ry="5" fill="#25343b"/><ellipse cx="141" cy="94" rx="4" ry="5" fill="#25343b"/>
<path d="M119 97 q-4 18 1 26 q5 3 10 0" stroke="#9a6651" stroke-width="3" fill="none" stroke-linecap="round"/><path d="M94 137 q26 18 52 0" stroke="#884f49" stroke-width="4" fill="none" stroke-linecap="round"/><path d="M85 129 q35 13 70 0" stroke="#fff" stroke-width="1.5" opacity=".25" fill="none"/>
</svg>