<svg xmlns="http://www.w3.org/2000/svg" viewBox="0 0 1200 760"><defs><linearGradient id="a" x1="0" x2="1"><stop stop-color="#dff0ed"/><stop offset="1" stop-color="#eef7f7"/></linearGradient></defs><rect width="1200" height="760" fill="url(#a)"/><circle cx="900" cy="220" r="150" fill="#8fcac7" opacity=".45"/><path d="M770 265c35-95 92-145 130-145 38 0 95 50 130 145 32 86 10 188-130 188S738 351 770 265Z" fill="#2b8aa0" opacity=".95"/><path d="M845 370c25 24 84 25 110 0" stroke="#fff" stroke-width="10" fill="none" stroke-linecap="round"/><g transform="translate(160 190)"><rect x="0" y="0" width="430" height="340" rx="30" fill="#fff"/><rect x="55" y="65" width="320" height="24" rx="12" fill="#b8d8da"/><rect x="55" y="115" width="240" height="18" rx="9" fill="#d7e7e8"/><circle cx="110" cy="215" r="45" fill="#73b4b0"/><path d="M100 195c17 14 30 32 35 55" stroke="#fff" stroke-width="9" fill="none" stroke-linecap="round"/><rect x="180" y="188" width="170" height="22" rx="11" fill="#85aeb6"/><rect x="180" y="230" width="130" height="16" rx="8" fill="#d7e7e8"/></g></svg>