<svg xmlns="http://www.w3.org/2000/svg" viewBox="0 0 1200 620"><defs><linearGradient id="s" x1="0" y1="0" x2="0" y2="1"><stop stop-color="#091821"/><stop offset="1" stop-color="#23414e"/></linearGradient><filter id="d"><feDropShadow dx="0" dy="10" stdDeviation="10" flood-opacity=".4"/></filter></defs><rect width="1200" height="620" fill="url(#s)"/><path d="M0 445L250 330L520 395L790 315L1200 390V620H0Z" fill="#102a35"/><g filter="url(#d)" stroke="#5d96aa" stroke-width="4"><g transform="translate(85 220)"><polygon points="0,130 135,55 270,130 135,205" fill="#0e2631"/><rect x="65" y="65" width="140" height="105" rx="8" fill="#173e4e"/><circle cx="52" cy="145" r="34" fill="#0e2833"/><circle cx="220" cy="145" r="34" fill="#0e2833"/></g><g transform="translate(430 215)"><rect width="220" height="190" rx="12" fill="#11313e"/><rect x="25" y="28" width="72" height="132" fill="#194555"/><rect x="123" y="28" width="72" height="132" fill="#194555"/><g fill="#72d4aa"><circle cx="48" cy="55" r="6"/><circle cx="48" cy="79" r="6"/><circle cx="146" cy="55" r="6"/></g></g><g transform="translate(755 190)"><ellipse cx="135" cy="38" rx="135" ry="38" fill="#1a4657"/><rect y="38" width="270" height="220" fill="#143644"/><ellipse cx="135" cy="258" rx="135" ry="38" fill="#0f2934"/><path d="M45 110H225M45 170H225" stroke="#39839e" stroke-width="8"/></g></g><path d="M355 350H430M650 350H755" stroke="#4cb2d4" stroke-width="16"/><g fill="#d9e9ef" font-family="Segoe UI,Arial"><text x="60" y="72" font-size="34" font-weight="700">SOLEDADE · EAST DISTRIBUTION COMPLEX</text><text x="60" y="110" font-size="20" fill="#7da0af">Pumping hall · RTU / PLC gallery · high-capacity storage</text><text x="145" y="455" font-size="18">PUMPING HALL</text><text x="475" y="455" font-size="18">RTU / PLC</text><text x="835" y="455" font-size="18">STORAGE</text></g></svg>